<svg xmlns="http://www.w3.org/2000/svg" width="755" height="330" viewBox="0 0 755.00001 330"><defs><clipPath id="a"><path d="M0 595.28h841.89V0H0v595.28z"/></clipPath></defs><path d="M53.058 109.977L2 69.717v77.98l51.058-37.72zM2 147.697v61.457l60.422 60.424-9.364-79.08L2 147.698zM122.84 260.282l-60.417 9.296L122.845 330v-69.722l-.004.004z" fill="#1e5c2d"/><path d="M53.058 109.977z" fill="none" stroke="#231f20" stroke-width=".3120225" stroke-miterlimit="22.926"/><path d="M62.422 34.86L2 69.717l51.058 40.26 9.364-75.12zM183.267 34.86l60.423 34.858-51.055 40.26-9.368-75.12zM122.845 0L62.423 34.86l60.418 34.858H122.85l60.417-34.86L122.845 0z" fill="#2e8e4b"/><path d="M192.635 109.977l51.055-40.26v77.98l-51.055-37.72zM243.69 147.697v61.457l-60.423 60.424 9.37-79.08 51.053-42.8zM122.85 260.282l60.417 9.296L122.845 330v-69.722l.004.004z" fill="#9cd74b"/><path d="M192.635 109.977z" fill="none" stroke="#231f20" stroke-width=".3120225" stroke-miterlimit="22.926"/><path d="M53.058 109.977L2 147.697l51.058 42.8v-80.52zM53.058 109.977l69.783-40.26L62.424 34.86l-9.365 75.117zM53.058 190.498l9.365 79.08 60.418-9.296-69.782-69.784zM192.635 109.977l51.055 37.72-51.055 42.8v-80.52zM192.635 109.977l-69.786-40.26 60.417-34.858 9.368 75.117zM192.635 190.498l-9.368 79.08-60.418-9.296 69.785-69.784z" fill="#59bb42"/><g clip-path="url(#a)" transform="matrix(1.2481 0 0 -1.2481 -147.2 536.48)"><path d="M700.93 345.01c-4.845 5.786-11.882 9.068-20.946 9.068-18.446 0-32.047-15.008-32.047-35.643 0-20.634 13.6-35.64 31.264-35.64 9.848 0 17.82 4.377 22.823 11.88l20.324-15.164c-9.22-13.13-24.857-19.228-40.016-19.228-34.55 0-59.717 22.667-59.717 58.153 0 35.485 25.166 58.153 59.718 58.153 12.347 0 27.98-4.22 37.36-16.258l-18.76-15.32zM562.995 352.203h-31.58v21.57h87.543v-21.57H587.38v-89.105h-24.385v89.105zM484.778 341.33l-13.445-34.39h27.047l-13.602 34.39zm-9.377 32.202h20.165l48.15-110.675H516.2l-9.533 23.45h-42.993l-9.222-23.45h-26.887L475.4 373.532zM410.117 346.73c-3.905 5.002-11.723 7.348-17.662 7.348-6.88 0-16.416-3.127-16.416-11.412 0-20.166 50.96-7.19 50.96-45.96 0-24.698-19.852-36.424-42.675-36.424-14.225 0-26.73 4.22-37.205 13.913l17.352 19.073c5.002-6.568 13.13-10.474 21.26-10.474 7.97 0 16.885 3.753 16.885 11.568 0 20.322-51.9 9.38-51.9 46.27 0 23.606 20.478 35.955 42.207 35.955 12.505 0 24.543-3.283 33.92-11.566l-16.727-18.29zM347.12 238.547h13.265v-3.97h-8.963v-3.64h8.466v-3.97h-8.466v-3.974h9.46v-3.97H347.12v19.524zM368.627 222.993h2.234c4 0 7.005 1.52 7.005 5.956 0 3.835-3.06 5.627-6.7 5.627h-2.538v-11.584zm-4.3 15.554h6.452c6.287 0 11.554-2.673 11.554-9.82 0-6.312-5.16-9.705-10.976-9.705h-7.032v19.525zM401.387 226.552c0-4.605-2.812-8.025-8.22-8.025-5.43 0-8.243 3.42-8.243 8.025v11.995h4.3v-11.83c0-2.397 1.656-4.22 3.944-4.22 2.263 0 3.915 1.823 3.915 4.22v11.83h4.304v-11.995zM418.122 233.475c-.854 1.02-2.097 1.6-3.696 1.6-3.254 0-5.654-2.648-5.654-6.288s2.4-6.29 5.515-6.29c1.738 0 3.146.773 4.027 2.1l3.585-2.677c-1.63-2.318-4.385-3.393-7.06-3.393-6.094 0-10.535 4-10.535 10.26 0 6.258 4.44 10.257 10.534 10.257 2.178 0 4.936-.744 6.59-2.868l-3.308-2.7zM432.734 232.867l-2.373-6.067h4.77l-2.396 6.067zm-1.655 5.68h3.555l8.495-19.525h-4.854l-1.682 4.138h-7.583l-1.627-4.138h-4.744l8.44 19.525zM456.767 233.475c-.855 1.02-2.094 1.6-3.695 1.6-3.254 0-5.657-2.648-5.657-6.288s2.403-6.29 5.518-6.29c1.74 0 3.143.773 4.027 2.1l3.582-2.677c-1.625-2.318-4.382-3.393-7.056-3.393-.196 0-.36 0-.526.03l-.798-1.187c1.626 0 3.474-.25 3.474-2.29 0-2.015-2.428-2.675-3.832-2.675-1.105 0-2.484.358-3.45.83l.69 1.293c.442-.165 1.186-.47 2.123-.47.856 0 1.82.167 1.82.886 0 .66-.825.936-1.378.936-.36 0-.663-.084-.993-.22l-.883.798 1.488 2.264c-4.908.88-8.273 4.604-8.273 10.065 0 6.258 4.44 10.257 10.536 10.257 2.177 0 4.933-.744 6.59-2.868l-3.31-2.7zM471.126 232.867l-2.37-6.067h4.768l-2.398 6.067zm-5.238 7.253c.3 1.847 1.433 3.806 3.502 3.806.91 0 1.6-.25 2.398-.58.498-.193.994-.412 1.545-.412.633 0 .965.44 1.213.992h2.15c-.357-2.096-1.267-3.806-3.584-3.806-.8 0-1.517.303-2.15.58-.635.3-1.188.577-1.738.577-.635 0-.993-.634-1.16-1.157h-2.176zm3.584-1.573h3.558l8.494-19.525h-4.855l-1.683 4.138h-7.582l-1.63-4.138h-4.74l8.437 19.525zM491.876 222.498c3.67 0 6.07 2.647 6.07 6.288 0 3.64-2.4 6.288-6.07 6.288-3.664 0-6.066-2.647-6.066-6.288 0-3.64 2.402-6.288 6.066-6.288m0 16.546c6.096 0 10.537-4 10.537-10.258 0-6.26-4.44-10.26-10.537-10.26-6.092 0-10.533 4-10.533 10.26s4.44 10.258 10.533 10.258M513.655 238.547h13.264v-3.97h-8.964v-3.64h8.467v-3.97h-8.467v-3.974h9.46v-3.97h-13.76v19.524zM542.8 234.743h-5.57v3.804h15.443v-3.804h-5.57v-15.72H542.8v15.72zM555.013 238.547h13.264v-3.97h-8.96v-3.64h8.464v-3.97h-8.464v-3.974h9.46v-3.97h-13.763v19.524zM584.985 233.475c-.854 1.02-2.096 1.6-3.695 1.6-3.254 0-5.655-2.648-5.655-6.288s2.4-6.29 5.518-6.29c1.736 0 3.143.773 4.025 2.1l3.586-2.677c-1.63-2.318-4.386-3.393-7.062-3.393-6.094 0-10.533 4-10.533 10.26 0 6.258 4.438 10.257 10.532 10.257 2.18 0 4.937-.744 6.594-2.868l-3.31-2.7zM591.102 238.547h5.846l8.3-13.567h.06v13.567h4.3v-19.524h-5.627l-8.52 13.9h-.057v-13.9h-4.3v19.524zM623.06 222.498c3.668 0 6.068 2.647 6.068 6.288 0 3.64-2.4 6.288-6.068 6.288-3.666 0-6.068-2.647-6.068-6.288 0-3.64 2.402-6.288 6.068-6.288m0 16.546c6.096 0 10.535-4 10.535-10.258 0-6.26-4.44-10.26-10.535-10.26-6.096 0-10.535 4-10.535 10.26s4.44 10.258 10.535 10.258M636.677 238.547h4.303v-15.554h7.968v-3.97h-12.27v19.524zM660.802 222.498c3.67 0 6.07 2.647 6.07 6.288 0 3.64-2.4 6.288-6.07 6.288-3.666 0-6.064-2.647-6.064-6.288 0-3.64 2.398-6.288 6.064-6.288m0 16.546c6.098 0 10.537-4 10.537-10.258 0-6.26-4.44-10.26-10.538-10.26-6.092 0-10.533 4-10.533 10.26s4.44 10.258 10.532 10.258M691.935 220.402c-2.537-1.324-5.324-1.876-8.19-1.876-6.095 0-10.537 4-10.537 10.26s4.442 10.258 10.538 10.258c3.087 0 5.818-.69 7.775-2.51l-3.03-3.31c-1.16 1.216-2.567 1.85-4.744 1.85-3.668 0-6.07-2.648-6.07-6.288s2.402-6.288 6.07-6.288c1.875 0 3.253.524 4.052.967v3.17h-3.502v3.972h7.64v-10.205zM695.65 238.547h4.304v-19.524h-4.303v19.524zM711.95 232.867l-2.373-6.067h4.77l-2.397 6.067zm-1.656 5.68h3.558l8.494-19.525h-4.855l-1.68 4.138h-7.583l-1.63-4.138h-4.74l8.437 19.525z" fill="#fff"/></g></svg>